<?xml version="1.0" encoding="UTF-8" standalone="no"?>
<svg
   viewBox="0 0 701.67308 815.42455"
   version="1.1"
   id="svg64"
   sodipodi:docname="openmcp_icon_color.svg"
   width="701.6731"
   height="815.42456"
   inkscape:version="1.4.3 (0d15f75, 2025-12-25)"
   xmlns:inkscape="http://www.inkscape.org/namespaces/inkscape"
   xmlns:sodipodi="http://sodipodi.sourceforge.net/DTD/sodipodi-0.dtd"
   xmlns:xlink="http://www.w3.org/1999/xlink"
   xmlns="http://www.w3.org/2000/svg"
   xmlns:svg="http://www.w3.org/2000/svg">
  <sodipodi:namedview
     id="namedview64"
     pagecolor="#ffffff"
     bordercolor="#000000"
     borderopacity="0.25"
     inkscape:showpageshadow="2"
     inkscape:pageopacity="0.0"
     inkscape:pagecheckerboard="0"
     inkscape:deskcolor="#d1d1d1"
     inkscape:zoom="0.43"
     inkscape:cx="366.27907"
     inkscape:cy="410.46512"
     inkscape:current-layer="svg64" />
  <defs
     id="defs44">
    <style
       id="style1">
      .cls-1 {
        filter: url(#drop-shadow-30);
      }

      .cls-1, .cls-2, .cls-3, .cls-4, .cls-5, .cls-6, .cls-7, .cls-8 {
        fill: #fff;
      }

      .cls-2 {
        filter: url(#drop-shadow-31);
      }

      .cls-3 {
        filter: url(#drop-shadow-12);
      }

      .cls-4 {
        filter: url(#drop-shadow-11);
      }

      .cls-5 {
        filter: url(#drop-shadow-25);
      }

      .cls-6 {
        filter: url(#drop-shadow-24);
      }

      .cls-7 {
        filter: url(#drop-shadow-23);
      }

      .cls-9, .cls-10, .cls-11 {
        stroke: #221f20;
        stroke-miterlimit: 10;
      }

      .cls-9, .cls-11 {
        fill: none;
        stroke-width: 5.5px;
      }

      .cls-10 {
        fill: #221f20;
      }

      .cls-12 {
        fill: url(#linear-gradient-7);
      }

      .cls-13 {
        fill: url(#linear-gradient-5);
      }

      .cls-14 {
        fill: url(#linear-gradient-6);
      }

      .cls-15 {
        fill: url(#linear-gradient-3);
      }

      .cls-16 {
        fill: url(#linear-gradient);
      }

      .cls-17 {
        fill: url(#linear-gradient-2);
      }

      .cls-17, .cls-18 {
        opacity: .27;
      }

      .cls-18 {
        fill: url(#linear-gradient-4);
      }

      .cls-19 {
        fill: url(#linear-gradient-8);
      }

      .cls-19, .cls-20 {
        opacity: .42;
      }

      .cls-20 {
        fill: url(#linear-gradient-9);
      }

      .cls-21 {
        fill: #5279a3;
      }

      .cls-22 {
        fill: url(#linear-gradient-10);
      }

      .cls-11 {
        stroke-linecap: round;
      }
    </style>
    <linearGradient
       id="linear-gradient"
       x1="-5370.75"
       y1="281.54999"
       x2="-4905.1699"
       y2="747.14001"
       gradientTransform="translate(5417.06)"
       gradientUnits="userSpaceOnUse">
      <stop
         offset="0"
         stop-color="#53b7f9"
         id="stop1" />
      <stop
         offset=".14"
         stop-color="#50b2f8"
         id="stop2" />
      <stop
         offset=".31"
         stop-color="#49a3f5"
         id="stop3" />
      <stop
         offset=".49"
         stop-color="#3e8bf2"
         id="stop4" />
      <stop
         offset=".49"
         stop-color="#3e8bf2"
         id="stop5" />
      <stop
         offset=".6"
         stop-color="#3a82f0"
         id="stop6" />
      <stop
         offset=".76"
         stop-color="#326cec"
         id="stop7" />
      <stop
         offset=".96"
         stop-color="#2348e5"
         id="stop8" />
      <stop
         offset=".99"
         stop-color="#2142e4"
         id="stop9" />
    </linearGradient>
    <filter
       id="drop-shadow-11"
       x="61.799999"
       y="137.07001"
       width="256.07999"
       height="189.84"
       filterUnits="userSpaceOnUse">
      <feOffset
         dx="-14.17"
         dy="17.01"
         id="feOffset9" />
      <feGaussianBlur
         result="blur"
         stdDeviation="8.5"
         id="feGaussianBlur9" />
      <feFlood
         flood-color="#000"
         flood-opacity=".5"
         id="feFlood9" />
      <feComposite
         in2="blur"
         operator="in"
         id="feComposite9" />
      <feComposite
         in="SourceGraphic"
         id="feComposite10" />
    </filter>
    <linearGradient
       id="linear-gradient-2"
       x1="348.20001"
       y1="628.48999"
       x2="263.22"
       y2="775.69"
       gradientTransform="matrix(0.88506975,0.48657121,-0.43357831,0.78867601,242.83,-485.15)"
       gradientUnits="userSpaceOnUse">
      <stop
         offset="0"
         stop-color="#fff"
         stop-opacity="0"
         id="stop10" />
      <stop
         offset=".12"
         stop-color="#c8d4e1"
         stop-opacity=".32"
         id="stop11" />
      <stop
         offset=".25"
         stop-color="#95adc6"
         stop-opacity=".61"
         id="stop12" />
      <stop
         offset=".37"
         stop-color="#7090b3"
         stop-opacity=".82"
         id="stop13" />
      <stop
         offset=".46"
         stop-color="#5a7fa7"
         stop-opacity=".95"
         id="stop14" />
      <stop
         offset=".52"
         stop-color="#5279a3"
         id="stop15" />
    </linearGradient>
    <linearGradient
       id="linear-gradient-3"
       x1="-10423.8"
       y1="281.54999"
       x2="-9958.2197"
       y2="747.14001"
       gradientTransform="matrix(-1,0,0,1,-9617.71,0)"
       xlink:href="#linear-gradient" />
    <filter
       id="drop-shadow-12"
       x="506.28"
       y="137.07001"
       width="256.07999"
       height="189.84"
       filterUnits="userSpaceOnUse">
      <feOffset
         dx="-14.17"
         dy="17.01"
         id="feOffset15" />
      <feGaussianBlur
         result="blur-2"
         stdDeviation="8.5"
         id="feGaussianBlur15" />
      <feFlood
         flood-color="#000"
         flood-opacity=".5"
         id="feFlood15" />
      <feComposite
         in2="blur-2"
         operator="in"
         id="feComposite15" />
      <feComposite
         in="SourceGraphic"
         id="feComposite16" />
    </filter>
    <linearGradient
       id="linear-gradient-4"
       x1="-4014.8999"
       y1="3328.6201"
       x2="-4099.8901"
       y2="3475.8201"
       gradientTransform="matrix(-0.88506975,0.48657121,0.43357831,0.78867601,-4443.49,-485.15)"
       xlink:href="#linear-gradient-2" />
    <filter
       id="drop-shadow-23"
       x="372.12"
       y="637.22998"
       width="80.160004"
       height="80.160004"
       filterUnits="userSpaceOnUse">
      <feOffset
         dx="-14.17"
         dy="17.01"
         id="feOffset16" />
      <feGaussianBlur
         result="blur-3"
         stdDeviation="8.5"
         id="feGaussianBlur16" />
      <feFlood
         flood-color="#000"
         flood-opacity=".5"
         id="feFlood16" />
      <feComposite
         in2="blur-3"
         operator="in"
         id="feComposite17" />
      <feComposite
         in="SourceGraphic"
         id="feComposite18" />
    </filter>
    <linearGradient
       id="linear-gradient-5"
       x1="-1350.65"
       y1="551.27002"
       x2="-1325.75"
       y2="565.64001"
       gradientTransform="rotate(90,-506.87,1491.58)"
       gradientUnits="userSpaceOnUse">
      <stop
         offset="0"
         stop-color="#fff"
         stop-opacity="0"
         id="stop18" />
      <stop
         offset=".08"
         stop-color="#e5ebf1"
         stop-opacity=".12"
         id="stop19" />
      <stop
         offset=".29"
         stop-color="#a6bacf"
         stop-opacity=".41"
         id="stop20" />
      <stop
         offset=".47"
         stop-color="#7896b7"
         stop-opacity=".62"
         id="stop21" />
      <stop
         offset=".63"
         stop-color="#5c80a8"
         stop-opacity=".75"
         id="stop22" />
      <stop
         offset=".73"
         stop-color="#5279a3"
         stop-opacity=".8"
         id="stop23" />
    </linearGradient>
    <filter
       id="drop-shadow-24"
       x="372.12"
       y="691.95001"
       width="80.160004"
       height="80.160004"
       filterUnits="userSpaceOnUse">
      <feOffset
         dx="-14.17"
         dy="17.01"
         id="feOffset23" />
      <feGaussianBlur
         result="blur-4"
         stdDeviation="8.5"
         id="feGaussianBlur23" />
      <feFlood
         flood-color="#000"
         flood-opacity=".5"
         id="feFlood23" />
      <feComposite
         in2="blur-4"
         operator="in"
         id="feComposite23" />
      <feComposite
         in="SourceGraphic"
         id="feComposite24" />
    </filter>
    <linearGradient
       id="linear-gradient-6"
       x1="-1295.84"
       y1="551.27002"
       x2="-1270.9399"
       y2="565.64001"
       xlink:href="#linear-gradient-5" />
    <filter
       id="drop-shadow-25"
       x="372.12"
       y="748.83002"
       width="80.160004"
       height="80.160004"
       filterUnits="userSpaceOnUse">
      <feOffset
         dx="-14.17"
         dy="17.01"
         id="feOffset24" />
      <feGaussianBlur
         result="blur-5"
         stdDeviation="8.5"
         id="feGaussianBlur24" />
      <feFlood
         flood-color="#000"
         flood-opacity=".5"
         id="feFlood24" />
      <feComposite
         in2="blur-5"
         operator="in"
         id="feComposite25" />
      <feComposite
         in="SourceGraphic"
         id="feComposite26" />
    </filter>
    <linearGradient
       id="linear-gradient-7"
       x1="-1239.0601"
       y1="551.27002"
       x2="-1214.16"
       y2="565.64001"
       xlink:href="#linear-gradient-5" />
    <filter
       id="drop-shadow-30"
       x="268.44"
       y="412.35001"
       width="170.64"
       height="159.84"
       filterUnits="userSpaceOnUse">
      <feOffset
         dx="-14.17"
         dy="17.01"
         id="feOffset26" />
      <feGaussianBlur
         result="blur-6"
         stdDeviation="8.5"
         id="feGaussianBlur26" />
      <feFlood
         flood-color="#000"
         flood-opacity=".5"
         id="feFlood26" />
      <feComposite
         in2="blur-6"
         operator="in"
         id="feComposite27" />
      <feComposite
         in="SourceGraphic"
         id="feComposite28" />
    </filter>
    <linearGradient
       id="linear-gradient-8"
       x1="369.57999"
       y1="447.59"
       x2="324.20999"
       y2="526.17999"
       gradientUnits="userSpaceOnUse">
      <stop
         offset="0"
         stop-color="#fff"
         stop-opacity="0"
         id="stop28" />
      <stop
         offset="0"
         stop-color="#fbfcfd"
         stop-opacity=".02"
         id="stop29" />
      <stop
         offset=".08"
         stop-color="#ced9e5"
         stop-opacity=".28"
         id="stop30" />
      <stop
         offset=".17"
         stop-color="#a8bbd0"
         stop-opacity=".5"
         id="stop31" />
      <stop
         offset=".25"
         stop-color="#88a3c0"
         stop-opacity=".68"
         id="stop32" />
      <stop
         offset=".35"
         stop-color="#7090b3"
         stop-opacity=".82"
         id="stop33" />
      <stop
         offset=".44"
         stop-color="#5f83aa"
         stop-opacity=".92"
         id="stop34" />
      <stop
         offset=".55"
         stop-color="#557ba4"
         stop-opacity=".98"
         id="stop35" />
      <stop
         offset=".7"
         stop-color="#5279a3"
         id="stop36" />
    </linearGradient>
    <filter
       id="drop-shadow-31"
       x="385.32001"
       y="412.35001"
       width="170.64"
       height="159.84"
       filterUnits="userSpaceOnUse">
      <feOffset
         dx="-14.17"
         dy="17.01"
         id="feOffset36" />
      <feGaussianBlur
         result="blur-7"
         stdDeviation="8.5"
         id="feGaussianBlur36" />
      <feFlood
         flood-color="#000"
         flood-opacity=".5"
         id="feFlood36" />
      <feComposite
         in2="blur-7"
         operator="in"
         id="feComposite36" />
      <feComposite
         in="SourceGraphic"
         id="feComposite37" />
    </filter>
    <linearGradient
       id="linear-gradient-9"
       x1="-1034.45"
       y1="419.03"
       x2="-986.83002"
       y2="501.5"
       gradientTransform="matrix(-1,0,0,1,-501.3,0)"
       gradientUnits="userSpaceOnUse">
      <stop
         offset="0"
         stop-color="#fff"
         stop-opacity="0"
         id="stop37" />
      <stop
         offset=".02"
         stop-color="#f5f7fa"
         stop-opacity=".05"
         id="stop38" />
      <stop
         offset=".16"
         stop-color="#c4d1df"
         stop-opacity=".34"
         id="stop39" />
      <stop
         offset=".29"
         stop-color="#9bb1c9"
         stop-opacity=".58"
         id="stop40" />
      <stop
         offset=".42"
         stop-color="#7b98b8"
         stop-opacity=".76"
         id="stop41" />
      <stop
         offset=".55"
         stop-color="#6487ac"
         stop-opacity=".89"
         id="stop42" />
      <stop
         offset=".67"
         stop-color="#567ca5"
         stop-opacity=".97"
         id="stop43" />
      <stop
         offset=".79"
         stop-color="#5279a3"
         id="stop44" />
    </linearGradient>
    <linearGradient
       id="linear-gradient-10"
       x1="-1533.64"
       y1="551.03003"
       x2="-1507.9"
       y2="565.88"
       xlink:href="#linear-gradient-5" />
    <linearGradient
       inkscape:collect="always"
       xlink:href="#linear-gradient"
       id="linearGradient64"
       gradientUnits="userSpaceOnUse"
       gradientTransform="translate(5417.06)"
       x1="-5370.75"
       y1="281.54999"
       x2="-4905.1699"
       y2="747.14001" />
    <linearGradient
       inkscape:collect="always"
       xlink:href="#linear-gradient-2"
       id="linearGradient65"
       gradientUnits="userSpaceOnUse"
       gradientTransform="matrix(0.88506975,0.48657121,-0.43357831,0.78867601,242.83,-485.15)"
       x1="348.20001"
       y1="628.48999"
       x2="263.22"
       y2="775.69" />
    <linearGradient
       inkscape:collect="always"
       xlink:href="#linear-gradient-5"
       id="linearGradient66"
       gradientUnits="userSpaceOnUse"
       gradientTransform="rotate(90,-506.87,1491.58)"
       x1="-1350.65"
       y1="551.27002"
       x2="-1325.75"
       y2="565.64001" />
  </defs>
  <g
     id="Layer_5"
     data-name="Layer 5"
     transform="translate(-61.799999,-17.865499)">
    <path
       class="cls-9"
       d="m 244.12,186.88 -57.17,-39.97 c 13.04,-18.65 34.42,-29.79 57.17,-29.79 38.27,0 69.76,31.49 69.76,69.76 0,13.84 -4.12,27.37 -11.83,38.86 z"
       id="path44" />
    <polygon
       class="cls-8"
       points="465.27,463.52 399.29,467.24 423.45,601.05 "
       id="polygon44" />
    <path
       class="cls-16"
       d="M 427.23,587.26 402.51,473.73 c -1.42,-6.51 -7.03,-11.26 -13.69,-11.57 -16.59,-0.76 -45.86,-2.64 -57.57,-5.49 -2.64,-0.64 -4.95,-2.21 -6.51,-4.44 L 242.52,334.39 c -3.16,-3.32 -3.48,-8.43 -0.76,-12.12 l 62.65,-92.94 c 3.01,-4.07 1.89,-9.85 -2.41,-12.51 L 195.18,144.05 c -3.19,-1.97 -7.03,-2.04 -10.19,-0.49 -2.15,1.06 -3.79,2.95 -4.78,5.13 L 89.92,366.21 c -1.64,3.59 -1.25,7.78 1.03,11 l 178.32,225.5 c 3.31,4.48 5.1,9.9 5.12,15.47 l 0.78,211.5 c 0.01,2 1.64,3.62 3.65,3.61 l 145.99,-0.56 c 2.01,0 3.63,-1.65 3.62,-3.66 l -1.11,-241.06 c 0,-0.25 -0.03,-0.5 -0.08,-0.75 z"
       id="path45"
       style="fill:url(#linearGradient64)" />
    <path
       class="cls-4"
       d="M 305.16,244.72 157.27,146.38 c -1.72,-1.14 -3.96,-0.84 -5,0.67 l -50.39,99.54 c -0.8,1.16 0.07,2.78 1.59,3.14 l 176.87,34.46 c 1,0.23 2,-0.12 2.5,-0.9 l 23.06,-35.74 c 0.58,-0.9 0.25,-2.15 -0.76,-2.82 z"
       id="path46" />
    <path
       class="cls-11"
       d="m 404.17,448.97 c 0,0 -72.3,-21.23 -72.72,-69.98 -0.08,-9.41 -28.15,-15.25 -28.15,-15.25 0,0 1.53,-54.65 5.57,-70.41 7.3,-28.5 31.08,-76.19 98.79,-76.19 62.76,0 83.64,44.35 87.77,70.66 5.54,35.32 6.87,93.92 -13.82,142.34"
       id="path47" />
    <path
       class="cls-17"
       d="M 305.13,244.64 156.05,145.5 c -1.05,-0.7 -2.42,-0.51 -3.05,0.41 l -51.08,100.56 c -0.81,1.19 0,2.89 1.57,3.25 l 177.03,34.43 c 0.9,0.21 1.8,-0.11 2.25,-0.81 l 23.14,-35.85 c 0.59,-0.91 0.25,-2.18 -0.77,-2.85 z"
       id="path48"
       style="fill:url(#linearGradient65)" />
    <path
       class="cls-9"
       d="m 608.28,186.88 57.17,-39.97 c -13.04,-18.65 -34.42,-29.79 -57.17,-29.79 -38.27,0 -69.76,31.49 -69.76,69.76 0,13.84 4.12,27.37 11.83,38.86 z"
       id="path49" />
    <path
       class="cls-15"
       d="m 425.16,587.26 24.72,-113.53 c 1.42,-6.51 7.03,-11.26 13.69,-11.57 16.59,-0.76 45.86,-2.64 57.57,-5.49 2.64,-0.64 4.95,-2.21 6.51,-4.44 l 82.22,-117.84 c 3.16,-3.32 3.48,-8.43 0.76,-12.12 l -62.65,-92.94 c -3.01,-4.07 -1.89,-9.85 2.41,-12.51 l 106.82,-72.77 c 3.19,-1.97 7.03,-2.04 10.19,-0.49 2.15,1.06 3.79,2.95 4.78,5.13 l 90.29,217.52 c 1.64,3.59 1.25,7.78 -1.03,11 l -178.32,225.5 c -3.31,4.48 -5.1,9.9 -5.12,15.47 l -0.78,211.5 c -0.01,2 -1.64,3.62 -3.65,3.61 l -145.99,-0.56 c -2.01,0 -3.63,-1.65 -3.62,-3.66 l 1.11,-241.06 c 0,-0.25 0.03,-0.5 0.08,-0.75 z"
       id="path50"
       style="fill:url(#linear-gradient-3)" />
    <path
       class="cls-3"
       d="m 547.23,244.72 147.89,-98.34 c 1.72,-1.14 3.96,-0.84 5,0.67 l 50.39,99.54 c 0.8,1.16 -0.07,2.78 -1.59,3.14 l -176.87,34.46 c -1,0.23 -2,-0.12 -2.5,-0.9 l -23.06,-35.74 c -0.58,-0.9 -0.25,-2.15 0.76,-2.82 z"
       id="path51" />
    <path
       class="cls-18"
       d="M 547.26,244.64 696.34,145.5 c 1.05,-0.7 2.42,-0.51 3.05,0.41 l 51.08,100.56 c 0.81,1.19 0,2.89 -1.57,3.25 l -177.03,34.43 c -0.9,0.21 -1.8,-0.11 -2.25,-0.81 l -23.14,-35.85 c -0.59,-0.91 -0.25,-2.18 0.77,-2.85 z"
       id="path52"
       style="fill:url(#linear-gradient-4)" />
    <path
       class="cls-10"
       d="m 471.21,31.51 c 19.71,-7.85 33.09,-13.18 33.09,-13.18 0,0 -158.54,90.68 -178.51,102.11 -2.27,1.09 -4.46,2.15 -4.46,2.15 -10.9,5.26 -22.57,3.67 -26.05,-3.56 -3.48,-7.22 2.53,-17.34 13.44,-22.6 0,0 1.1,-0.53 2.55,-1.23 5.4,-2.15 106.22,-42.3 159.95,-63.7 z"
       id="path53" />
  </g>
  <g
     id="Layer_7"
     data-name="Layer 7"
     transform="translate(-61.799999,-17.865499)">
    <circle
       class="cls-21"
       cx="132.44"
       cy="233.78"
       r="9.3599997"
       id="circle53" />
    <circle
       class="cls-21"
       cx="716.59003"
       cy="233.78"
       r="9.3599997"
       id="circle54" />
    <circle
       class="cls-7"
       cx="426.26001"
       cy="660.25"
       r="14.37"
       id="circle55" />
    <circle
       class="cls-13"
       cx="426.26001"
       cy="660.25"
       r="14.37"
       id="circle56"
       style="fill:url(#linearGradient66)" />
    <circle
       class="cls-6"
       cx="426.26001"
       cy="715.06"
       r="14.37"
       id="circle57" />
    <circle
       class="cls-14"
       cx="426.26001"
       cy="715.06"
       r="14.37"
       id="circle58"
       style="fill:url(#linear-gradient-6)" />
    <path
       class="cls-5"
       d="m 411.88,771.84 c 0,-7.94 6.43,-14.37 14.37,-14.37 7.94,0 14.37,6.43 14.37,14.37 0,7.94 -6.43,14.37 -14.37,14.37 -7.94,0 -14.37,-6.43 -14.37,-14.37 z"
       id="path58" />
    <path
       class="cls-12"
       d="m 411.88,771.84 c 0,-7.94 6.43,-14.37 14.37,-14.37 7.94,0 14.37,6.43 14.37,14.37 0,7.94 -6.43,14.37 -14.37,14.37 -7.94,0 -14.37,-6.43 -14.37,-14.37 z"
       id="path59"
       style="fill:url(#linear-gradient-7)" />
    <path
       class="cls-1"
       d="m 426.61,479.66 -116.38,49.73 c -0.96,0.42 -2.04,-0.29 -2.04,-1.34 V 422.47 c 0,-1.08 1.13,-1.79 2.1,-1.31 l 116.38,55.85 c 1.12,0.55 1.08,2.16 -0.06,2.65 z"
       id="path60" />
    <path
       class="cls-19"
       d="m 426.96,479.44 -116.73,49.95 c -0.96,0.42 -2.04,-0.29 -2.04,-1.34 V 422.46 c 0,-0.91 1.27,-1.7 2.1,-1.31 l 116.69,56.01 c 0.98,0.45 0.96,1.85 -0.03,2.27 z"
       id="path61"
       style="fill:url(#linear-gradient-8)" />
    <path
       class="cls-2"
       d="m 425.9,479.66 116.38,49.73 c 0.96,0.42 2.04,-0.29 2.04,-1.34 V 422.47 c 0,-1.08 -1.13,-1.79 -2.1,-1.31 l -116.38,55.85 c -1.12,0.55 -1.08,2.16 0.06,2.65 z"
       id="path62" />
    <path
       class="cls-20"
       d="m 425.55,479.42 116.73,49.95 c 0.96,0.42 2.04,-0.29 2.04,-1.34 V 422.44 c 0,-0.91 -1.27,-1.7 -2.1,-1.31 l -116.69,56.01 c -0.98,0.45 -0.96,1.85 0.03,2.27 z"
       id="path63"
       style="fill:url(#linear-gradient-9)" />
    <circle
       class="cls-8"
       cx="426.26001"
       cy="477.78"
       r="14.76"
       id="circle63" />
    <circle
       class="cls-22"
       cx="426.26001"
       cy="477.69"
       r="14.86"
       id="circle64"
       style="fill:url(#linear-gradient-10)" />
  </g>
</svg>
