<?xml version="1.0" encoding="UTF-8" standalone="no"?>
<svg
   id="a"
   data-name="Layer 1"
   width="850.39"
   height="850.39"
   viewBox="0 0 850.39 850.39"
   version="1.1"
   sodipodi:docname="open-managed-control-planes-icon-white.svg"
   inkscape:export-filename="open-managed-control-planes-icon-white.png"
   inkscape:export-xdpi="96"
   inkscape:export-ydpi="96"
   inkscape:version="1.4.3 (0d15f75, 2025-12-25)"
   xmlns:inkscape="http://www.inkscape.org/namespaces/inkscape"
   xmlns:sodipodi="http://sodipodi.sourceforge.net/DTD/sodipodi-0.dtd"
   xmlns:xlink="http://www.w3.org/1999/xlink"
   xmlns="http://www.w3.org/2000/svg"
   xmlns:svg="http://www.w3.org/2000/svg">
  <sodipodi:namedview
     id="namedview69"
     pagecolor="#ffffff"
     bordercolor="#000000"
     borderopacity="0.25"
     inkscape:showpageshadow="2"
     inkscape:pageopacity="0.0"
     inkscape:pagecheckerboard="0"
     inkscape:deskcolor="#d1d1d1"
     inkscape:zoom="0.030574207"
     inkscape:cx="408.84135"
     inkscape:cy="408.84135"
     inkscape:current-layer="a" />
  <defs
     id="defs47">
    <linearGradient
       id="c"
       x1="248.57"
       y1="590.46"
       x2="175.6"
       y2="464.08"
       gradientTransform="translate(0 847.89) scale(1 -1)"
       gradientUnits="userSpaceOnUse">
      <stop
         offset="0"
         stop-color="#fff"
         stop-opacity="0"
         id="stop1" />
      <stop
         offset=".12"
         stop-color="#c8d4e1"
         stop-opacity=".32"
         id="stop2" />
      <stop
         offset=".25"
         stop-color="#95adc6"
         stop-opacity=".61"
         id="stop3" />
      <stop
         offset=".37"
         stop-color="#7090b3"
         stop-opacity=".82"
         id="stop4" />
      <stop
         offset=".46"
         stop-color="#5a7fa7"
         stop-opacity=".95"
         id="stop5" />
      <stop
         offset=".52"
         stop-color="#5279a3"
         id="stop6" />
    </linearGradient>
    <linearGradient
       id="d"
       x1="389.27"
       y1="401.59"
       x2="352.24"
       y2="337.44"
       gradientTransform="translate(0 847.89) scale(1 -1)"
       gradientUnits="userSpaceOnUse">
      <stop
         offset="0"
         stop-color="#fff"
         stop-opacity="0"
         id="stop7" />
      <stop
         offset="0"
         stop-color="#fbfcfd"
         stop-opacity=".02"
         id="stop8" />
      <stop
         offset=".08"
         stop-color="#ced9e5"
         stop-opacity=".28"
         id="stop9" />
      <stop
         offset=".17"
         stop-color="#a8bbd0"
         stop-opacity=".5"
         id="stop10" />
      <stop
         offset=".25"
         stop-color="#88a3c0"
         stop-opacity=".68"
         id="stop11" />
      <stop
         offset=".35"
         stop-color="#7090b3"
         stop-opacity=".82"
         id="stop12" />
      <stop
         offset=".44"
         stop-color="#5f83aa"
         stop-opacity=".92"
         id="stop13" />
      <stop
         offset=".55"
         stop-color="#557ba4"
         stop-opacity=".98"
         id="stop14" />
      <stop
         offset=".7"
         stop-color="#5279a3"
         id="stop15" />
    </linearGradient>
    <linearGradient
       id="e"
       x1="-2734.73"
       y1="588.13"
       x2="-2678.23"
       y2="490.27"
       gradientTransform="translate(-2029.6 847.89) rotate(-180)"
       gradientUnits="userSpaceOnUse">
      <stop
         offset="0"
         stop-color="#fff"
         stop-opacity="0"
         id="stop16" />
      <stop
         offset=".15"
         stop-color="#c8d4e1"
         stop-opacity=".32"
         id="stop17" />
      <stop
         offset=".3"
         stop-color="#95adc6"
         stop-opacity=".61"
         id="stop18" />
      <stop
         offset=".44"
         stop-color="#7090b3"
         stop-opacity=".82"
         id="stop19" />
      <stop
         offset=".55"
         stop-color="#5a7fa7"
         stop-opacity=".95"
         id="stop20" />
      <stop
         offset=".63"
         stop-color="#5279a3"
         id="stop21" />
    </linearGradient>
    <linearGradient
       id="f"
       x1="-2552.36"
       y1="424.91"
       x2="-2513.49"
       y2="357.6"
       gradientTransform="translate(-2029.6 847.89) rotate(-180)"
       gradientUnits="userSpaceOnUse">
      <stop
         offset="0"
         stop-color="#fff"
         stop-opacity="0"
         id="stop22" />
      <stop
         offset=".02"
         stop-color="#f5f7fa"
         stop-opacity=".05"
         id="stop23" />
      <stop
         offset=".16"
         stop-color="#c4d1df"
         stop-opacity=".34"
         id="stop24" />
      <stop
         offset=".29"
         stop-color="#9bb1c9"
         stop-opacity=".58"
         id="stop25" />
      <stop
         offset=".42"
         stop-color="#7b98b8"
         stop-opacity=".76"
         id="stop26" />
      <stop
         offset=".55"
         stop-color="#6487ac"
         stop-opacity=".89"
         id="stop27" />
      <stop
         offset=".67"
         stop-color="#567ca5"
         stop-opacity=".97"
         id="stop28" />
      <stop
         offset=".79"
         stop-color="#5279a3"
         id="stop29" />
    </linearGradient>
    <linearGradient
       id="h"
       x1="-2305.09"
       y1="1065.87"
       x2="-2284.23"
       y2="1053.82"
       gradientTransform="translate(-624.33 2765.6) rotate(90) scale(1 -1)"
       gradientUnits="userSpaceOnUse">
      <stop
         offset="0"
         stop-color="#fff"
         stop-opacity="0"
         id="stop30" />
      <stop
         offset=".08"
         stop-color="#e5ebf1"
         stop-opacity=".12"
         id="stop31" />
      <stop
         offset=".29"
         stop-color="#a6bacf"
         stop-opacity=".41"
         id="stop32" />
      <stop
         offset=".47"
         stop-color="#7896b7"
         stop-opacity=".62"
         id="stop33" />
      <stop
         offset=".63"
         stop-color="#5c80a8"
         stop-opacity=".75"
         id="stop34" />
      <stop
         offset=".73"
         stop-color="#5279a3"
         stop-opacity=".8"
         id="stop35" />
    </linearGradient>
    <linearGradient
       id="i"
       x1="-2094.26"
       y1="1065.87"
       x2="-2073.4"
       y2="1053.82"
       gradientTransform="translate(-624.33 2765.6) rotate(90) scale(1 -1)"
       gradientUnits="userSpaceOnUse">
      <stop
         offset="0"
         stop-color="#fff"
         stop-opacity="0"
         id="stop36" />
      <stop
         offset=".08"
         stop-color="#e5ebf1"
         stop-opacity=".12"
         id="stop37" />
      <stop
         offset=".29"
         stop-color="#a6bacf"
         stop-opacity=".41"
         id="stop38" />
      <stop
         offset=".47"
         stop-color="#7896b7"
         stop-opacity=".62"
         id="stop39" />
      <stop
         offset=".63"
         stop-color="#5c80a8"
         stop-opacity=".75"
         id="stop40" />
      <stop
         offset=".73"
         stop-color="#5279a3"
         stop-opacity=".8"
         id="stop41" />
    </linearGradient>
    <linearGradient
       id="j"
       x1="-2141.56"
       x2="-2120.7"
       xlink:href="#i" />
    <linearGradient
       id="k"
       x1="-2046.68"
       y1="1065.87"
       x2="-2025.81"
       y2="1053.82"
       gradientTransform="translate(-624.33 2765.6) rotate(90) scale(1 -1)"
       gradientUnits="userSpaceOnUse">
      <stop
         offset="0"
         stop-color="#fff"
         stop-opacity="0"
         id="stop42" />
      <stop
         offset=".08"
         stop-color="#e5ebf1"
         stop-opacity=".12"
         id="stop43" />
      <stop
         offset=".29"
         stop-color="#a6bacf"
         stop-opacity=".41"
         id="stop44" />
      <stop
         offset=".47"
         stop-color="#7896b7"
         stop-opacity=".62"
         id="stop45" />
      <stop
         offset=".63"
         stop-color="#5c80a8"
         stop-opacity=".75"
         id="stop46" />
      <stop
         offset=".73"
         stop-color="#5279a3"
         stop-opacity=".8"
         id="stop47" />
    </linearGradient>
  </defs>
  <g
     id="b"
     data-name="Layer 5">
    <path
       d="M174.7,258.25c3.12-29.1,29.24-53.97,64.89-50.14,35.65,3.83,50.58,30.17,47.46,59.28"
       fill="none"
       stroke="#fff"
       stroke-miterlimit="10"
       stroke-width="6.5"
       id="path47" />
    <path
       d="M695.98,256.18c-3.12-29.1-29.24-50.98-64.89-47.15-35.65,3.83-51.58,30.17-48.45,59.28"
       fill="none"
       stroke="#fff"
       stroke-miterlimit="10"
       stroke-width="6.5"
       id="path48" />
    <path
       d="M435.42,574.65l-22.25-102.18c-.3-1.37-1.48-2.35-2.88-2.39-11.8-.35-55.2-2.6-59.25-6.41l-61.51-57.87c-5.95-5.6-9.03-13.58-8.38-21.71,2.38-29.91,8.3-97.2,9.87-115.53.14-1.66-1.07-3.11-2.72-3.28h0l-113.99-11.62c-1.69-.17-3.18,1.07-3.34,2.75l-15.53,169.09c-.5,7.44,2.5,14.69,8.11,19.58l135.58,130.54c5.14,4.48,8.1,10.96,8.16,17.77l1.12,200.21c0,1.68,1.38,3.03,3.05,3.03l122.36-.47c1.69,0,3.04-1.38,3.03-3.06l-1.38-217.8c0-.21-.02-.42-.07-.63h.02Z"
       fill="#fff"
       id="path49" />
    <path
       d="M292.04,297.69l-146.15-13.9c-1.7-.16-3.2,1.09-3.35,2.78l-8.85,101.11c-.11,1.3,1.16,2.24,2.4,1.85l153.7-48.57c.82-.26,1.4-1,1.45-1.86l2.47-39.45c.06-1-.68-1.87-1.68-1.96h0Z"
       fill="#fff"
       id="path50" />
    <path
       d="M434.96,574.65l22.25-102.18c.3-1.37,1.48-2.35,2.88-2.39,11.8-.35,55.2-2.6,59.25-6.41l61.51-57.87c5.95-5.6,9.03-13.58,8.38-21.71-2.38-29.91-8.3-97.2-9.87-115.53-.14-1.66,1.07-3.11,2.72-3.28h0l113.99-11.62c1.69-.17,3.18,1.07,3.34,2.75l15.53,169.09c.5,7.44-2.5,14.69-8.11,19.58l-135.58,130.54c-5.14,4.48-8.1,10.96-8.16,17.77l-1.12,200.21c0,1.68-1.38,3.03-3.05,3.03l-122.36-.47c-1.69,0-3.04-1.38-3.03-3.06l1.38-217.8c0-.21.02-.42.07-.63h-.02Z"
       fill="#fff"
       id="path51" />
    <path
       d="M435.8,472.46l-94.98,40.59c-.79.34-1.67-.24-1.67-1.1v-86.17c0-.88.92-1.46,1.72-1.07l94.98,45.58c.92.45.89,1.76-.05,2.17Z"
       fill="#fff"
       id="path52" />
    <path
       d="M346.38,61.51c12.26-12.88,20.59-21.62,20.59-21.62,0,0-89,124.56-100.2,140.25-1.35,1.63-2.64,3.2-2.64,3.2-6.47,7.82-15.91,10.69-21.08,6.41-5.18-4.28-4.14-14.09,2.32-21.91,0,0,.66-.79,1.52-1.83,3.36-3.52,66.08-69.4,99.51-104.5h0Z"
       fill="#fff"
       stroke="#fff"
       stroke-miterlimit="10"
       id="path53" />
    <path
       d="M421.71,447.02s-60.6-17.79-60.95-58.65c-.07-7.89-23.59-12.78-23.59-12.78,0,0,1.29-45.8,4.67-59.01,6.12-23.89,26.05-63.86,82.8-63.86,52.6,0,70.11,37.17,73.57,59.23,4.64,29.61,5.76,78.72-11.58,119.3"
       fill="none"
       stroke="#fff"
       stroke-linecap="round"
       stroke-miterlimit="10"
       stroke-width="6.5"
       id="path54" />
    <path
       d="M291.99,297.64l-147.33-14.01c-1.04-.1-1.96.67-2.05,1.7l-8.95,102.25c-.12,1.33,1.16,2.35,2.43,1.95l153.8-48.66c.74-.23,1.26-.9,1.31-1.67l2.48-39.57c.06-1.01-.69-1.89-1.7-1.99h0Z"
       fill="url(#c)"
       isolation="isolate"
       opacity=".27"
       id="path55" />
    <path
       d="M436.09,472.29l-95.27,40.77c-.79.34-1.66-.24-1.66-1.09v-86.18c0-.75,1.04-1.39,1.72-1.07l95.24,45.71c.8.37.78,1.51-.02,1.86h0Z"
       fill="url(#d)"
       isolation="isolate"
       opacity=".42"
       id="path56" />
    <path
       d="M578.33,297.69l146.15-13.9c1.7-.16,3.2,1.09,3.35,2.78l8.85,101.11c.11,1.3-1.16,2.24-2.4,1.85l-153.7-48.57c-.82-.26-1.4-1-1.45-1.86l-2.47-39.45c-.06-1,.68-1.87,1.68-1.96h0Z"
       fill="#fff"
       id="path57" />
    <path
       d="M435.22,472.46l94.98,40.59c.79.34,1.67-.24,1.67-1.1v-86.17c0-.88-.92-1.46-1.72-1.07l-94.98,45.58c-.92.45-.89,1.76.05,2.17Z"
       fill="#fff"
       id="path58" />
    <path
       d="M578.39,297.64l147.33-14.01c1.04-.1,1.96.67,2.05,1.7l8.95,102.25c.12,1.33-1.16,2.35-2.43,1.95l-153.8-48.66c-.74-.23-1.26-.9-1.31-1.67l-2.48-39.57c-.06-1.01.69-1.89,1.7-1.99h0Z"
       fill="url(#e)"
       isolation="isolate"
       opacity=".27"
       id="path59" />
    <path
       d="M434.95,472.27l95.27,40.77c.79.34,1.66-.24,1.66-1.09v-86.18c0-.75-1.04-1.39-1.72-1.07l-95.24,45.71c-.8.37-.78,1.51.02,1.86h0Z"
       fill="url(#f)"
       isolation="isolate"
       opacity=".42"
       id="path60" />
  </g>
  <g
     id="g"
     data-name="Layer 7">
    <circle
       cx="155.78"
       cy="362.28"
       r="7.84"
       fill="#5279a3"
       id="circle60" />
    <circle
       cx="712.15"
       cy="362.28"
       r="7.84"
       fill="#5279a3"
       id="circle61" />
    <circle
       cx="435.51"
       cy="635.83"
       r="12.04"
       fill="#fff"
       id="circle62" />
    <circle
       cx="435.51"
       cy="635.83"
       r="12.04"
       fill="#fff"
       id="circle63" />
    <circle
       cx="435.51"
       cy="470.94"
       r="12.04"
       fill="#fff"
       id="circle64" />
    <circle
       cx="435.51"
       cy="470.94"
       r="12.04"
       fill="url(#h)"
       id="circle65" />
    <circle
       cx="435.51"
       cy="681.77"
       r="12.04"
       fill="#fff"
       id="circle66" />
    <circle
       cx="435.51"
       cy="681.77"
       r="12.04"
       fill="url(#i)"
       id="circle67" />
    <circle
       cx="435.51"
       cy="634.47"
       r="12.04"
       fill="url(#j)"
       id="circle68" />
    <path
       d="M423.47,729.36c0-6.66,5.39-12.04,12.04-12.04s12.04,5.39,12.04,12.04-5.39,12.04-12.04,12.04-12.04-5.39-12.04-12.04Z"
       fill="#fff"
       id="path68" />
    <path
       d="M423.47,729.36c0-6.66,5.39-12.04,12.04-12.04s12.04,5.39,12.04,12.04-5.39,12.04-12.04,12.04-12.04-5.39-12.04-12.04Z"
       fill="url(#k)"
       id="path69" />
  </g>
</svg>
